<?xml version="1.0" standalone="no"?>
<!DOCTYPE svg PUBLIC "-//W3C//DTD SVG 20010904//EN"
 "http://www.w3.org/TR/2001/REC-SVG-20010904/DTD/svg10.dtd">
<svg version="1.0" xmlns="http://www.w3.org/2000/svg"
 width="640.000000pt" height="640.000000pt" viewBox="0 0 640.000000 640.000000"
 preserveAspectRatio="xMidYMid meet">
<metadata>
Created by potrace 1.15, written by Peter Selinger 2001-2017
</metadata>
<g transform="translate(0.000000,640.000000) scale(0.100000,-0.100000)"
fill="#000000" stroke="none">
<path d="M2910 5350 c0 -105 3 -140 13 -141 6 0 47 0 91 1 l78 1 -3 -138 -4
-138 125 -3 125 -3 -3 141 -3 141 90 -3 91 -3 0 143 0 142 -300 0 -300 0 0
-140z m485 12 c3 -8 3 -23 0 -33 -6 -19 -13 -21 -67 -23 -17 -1 -35 -12 -49
-31 -13 -17 -27 -32 -31 -35 -6 -5 -30 -130 -27 -147 3 -20 -2 -43 -10 -43 -4
0 -12 37 -16 83 -6 80 -29 152 -45 142 -4 -3 -13 2 -20 11 -7 8 -19 13 -26 10
-7 -3 -16 -1 -19 4 -4 6 -15 10 -25 10 -20 0 -38 40 -27 57 3 5 84 9 181 9
146 1 176 -2 181 -14z"/>
<path d="M3070 3806 l0 -604 -58 -59 c-43 -43 -62 -70 -71 -105 -16 -58 -11
-151 12 -199 l18 -35 -162 -274 c-89 -151 -157 -276 -152 -277 5 -2 58 -32
119 -67 107 -62 109 -63 121 -42 7 11 77 134 155 271 l143 250 51 6 c80 10
121 27 165 71 60 60 79 107 79 204 0 70 -4 89 -28 135 -16 31 -46 68 -72 87
l-44 34 3 604 3 604 -141 0 -141 0 0 -604z m160 -53 c4 -454 7 -543 20 -558
13 -15 12 -19 -5 -31 -23 -17 -49 -18 -63 -1 -6 8 -7 48 -1 112 4 55 8 305 9
556 0 251 3 459 7 463 25 25 28 -22 33 -541z m37 -713 c55 -33 63 -130 14
-174 -50 -46 -146 -19 -168 47 -24 72 26 147 97 147 14 0 39 -9 57 -20z"/>
<path d="M3861 4274 c-27 -22 -31 -32 -31 -72 1 -100 104 -150 171 -83 39 40
42 114 4 155 -34 37 -101 37 -144 0z"/>
<path d="M1940 3774 c-44 -15 -61 -31 -76 -70 -16 -41 -15 -45 3 -81 15 -29
30 -41 61 -51 37 -12 46 -12 79 5 67 32 81 111 30 167 -22 25 -69 39 -97 30z"/>
<path d="M4413 3766 c-47 -21 -70 -73 -55 -125 28 -92 157 -104 199 -17 43 91
-51 183 -144 142z"/>
<path d="M1723 3045 c-46 -20 -56 -44 -43 -112 12 -66 16 -72 61 -82 45 -10
94 4 114 31 33 48 9 144 -42 167 -31 14 -51 13 -90 -4z"/>
<path d="M1890 2303 c-80 -73 -18 -196 90 -179 50 8 80 46 80 102 0 94 -101
139 -170 77z"/>
<path d="M2443 1796 c-40 -18 -53 -43 -53 -101 0 -65 31 -95 98 -95 85 0 129
60 98 133 -27 64 -84 89 -143 63z"/>
<path d="M3894 1800 c-50 -20 -79 -98 -58 -155 10 -25 58 -45 108 -45 58 0 86
32 86 97 0 55 -12 78 -50 98 -32 17 -54 18 -86 5z"/>
<path d="M3139 1581 c-57 -57 -31 -158 46 -177 92 -23 160 79 109 165 -30 51
-109 58 -155 12z"/>
</g>
</svg>
