<?xml version="1.0" standalone="no"?>
<!DOCTYPE svg PUBLIC "-//W3C//DTD SVG 20010904//EN"
 "http://www.w3.org/TR/2001/REC-SVG-20010904/DTD/svg10.dtd">
<svg version="1.0" xmlns="http://www.w3.org/2000/svg"
 width="1280.000000pt" height="1280.000000pt" viewBox="0 0 1280.000000 1280.000000"
 preserveAspectRatio="xMidYMid meet">
<metadata>
Created by potrace 1.15, written by Peter Selinger 2001-2017
</metadata>
<g transform="translate(0.000000,1280.000000) scale(0.100000,-0.100000)"
fill="#000000" stroke="none">
<path d="M0 6400 l0 -6400 6400 0 6400 0 0 6400 0 6400 -6400 0 -6400 0 0
-6400z m7020 4289 l0 -280 -165 3 c-134 2 -168 6 -175 18 -7 11 -4 17 8 22 16
6 16 7 0 7 -10 1 -18 5 -18 10 0 5 10 7 23 4 16 -3 18 -2 8 5 -11 8 -10 12 7
21 18 10 21 9 16 -4 -5 -11 -2 -13 9 -9 10 3 13 12 10 22 -4 9 -3 14 2 10 10
-9 75 40 75 57 0 7 3 15 8 17 13 6 52 93 49 110 -4 23 -56 88 -70 88 -5 0 -16
8 -23 18 -10 13 -27 17 -83 17 -39 0 -71 -3 -71 -7 0 -5 -7 -8 -15 -8 -8 0
-15 6 -15 13 0 8 -4 7 -10 -3 -6 -9 -10 -10 -10 -3 0 12 -80 10 -100 -2 -6 -4
-10 -2 -10 3 0 6 -8 8 -17 6 -10 -2 -67 -5 -128 -7 -91 -3 -112 -1 -122 12 -8
11 -12 12 -13 4 0 -9 -17 -13 -51 -13 -43 0 -54 -4 -71 -25 -11 -14 -24 -22
-30 -19 -6 4 -8 2 -5 -3 4 -6 -2 -18 -13 -28 -28 -25 -26 -78 5 -122 13 -20
22 -40 19 -45 -3 -5 0 -7 7 -6 6 2 16 -10 22 -27 5 -16 19 -38 30 -50 11 -11
17 -14 13 -7 -8 13 3 16 28 6 9 -3 16 -12 16 -19 0 -7 13 -16 30 -20 40 -9 47
-23 8 -17 -21 3 -29 1 -24 -7 4 -6 14 -11 21 -11 10 0 13 -9 11 -27 -2 -16 -1
-20 1 -10 5 21 43 23 43 2 0 -8 9 -29 19 -47 11 -17 18 -35 15 -40 -3 -5 -2
-14 3 -21 14 -18 44 -104 42 -119 -4 -30 4 -45 45 -90 41 -46 60 -57 68 -40 2
4 16 17 32 30 16 12 25 22 20 22 -5 0 2 7 14 16 16 11 22 25 22 55 0 22 5 39
11 39 6 0 9 7 5 15 -3 8 -2 15 3 15 5 0 8 6 8 13 -2 27 27 167 36 167 4 0 6
-4 2 -9 -3 -5 -1 -12 5 -16 5 -3 11 -1 11 4 1 6 3 16 4 21 1 6 3 19 4 30 1 24
21 27 21 4 0 -10 6 -14 15 -10 8 3 15 1 15 -4 0 -6 -8 -11 -17 -11 -17 -1 -17
-2 0 -6 16 -4 17 -26 17 -274 l0 -270 -245 2 -246 1 1 275 1 276 -175 -2 -176
-2 0 280 0 281 595 0 595 0 0 -281z m-332 -1266 l3 -23 -270 0 -271 0 0 23 0
22 268 0 267 0 3 -22z m0 -161 l3 -22 -270 0 -271 0 0 23 0 22 268 -1 c267 0
267 0 270 -22z m0 -159 l3 -23 -270 0 -271 0 0 23 0 22 268 0 267 0 3 -22z m3
-1499 l-2 -1212 53 -30 c106 -60 197 -188 234 -330 21 -81 18 -231 -7 -314
-11 -38 -24 -66 -29 -63 -6 3 -7 -1 -4 -9 21 -55 -216 -283 -272 -262 -8 3
-12 2 -9 -4 9 -15 -143 -50 -220 -50 -35 0 -44 -4 -55 -27 -8 -16 -37 -68 -66
-118 -84 -147 -458 -804 -498 -878 l-38 -67 -56 32 c-32 17 -68 39 -82 49 -24
16 -245 139 -302 168 -33 17 -35 32 -9 69 17 25 200 330 225 377 6 11 44 76
85 145 40 69 97 166 126 215 29 50 61 106 73 125 11 19 35 60 53 90 17 30 36
58 42 61 16 11 11 55 -11 85 -50 69 -75 241 -51 356 12 59 75 198 90 198 5 0
9 5 9 10 0 20 74 92 127 123 l53 32 0 1222 0 1223 271 -2 271 -3 -1 -1211z
m1272 980 c65 -33 106 -109 107 -197 0 -125 -82 -207 -208 -207 -85 0 -141 38
-189 129 -18 32 -16 131 2 174 17 40 68 86 117 104 48 17 134 16 171 -3z
m-3922 -1059 c34 -18 64 -60 74 -102 3 -18 11 -35 16 -38 16 -10 10 -98 -10
-140 -19 -43 -68 -91 -109 -106 -40 -15 -135 -12 -176 5 -108 45 -153 178 -96
286 23 44 32 54 78 87 49 34 164 38 223 8z m5002 -16 c87 -63 115 -146 82
-240 -55 -155 -252 -191 -363 -65 -31 35 -52 90 -52 135 0 68 55 161 109 183
74 31 173 25 224 -13z m-5440 -1410 c21 -6 56 -26 77 -45 105 -95 88 -284 -30
-344 -54 -27 -149 -27 -206 1 -58 27 -63 36 -74 120 -25 185 -27 162 16 208
59 63 133 84 217 60z m394 -1451 c110 -48 154 -146 122 -275 -35 -137 -231
-180 -343 -75 -38 36 -66 98 -66 147 0 47 37 130 71 162 53 49 154 68 216 41z
m1046 -1052 c97 -35 147 -106 147 -208 0 -79 -21 -123 -78 -163 -38 -26 -54
-30 -120 -33 -93 -4 -133 13 -175 74 -35 50 -46 140 -27 209 28 99 150 157
253 121z m2919 -12 c70 -36 108 -100 108 -181 0 -68 -16 -118 -51 -158 -38
-43 -85 -58 -165 -53 -50 3 -72 10 -106 34 -68 47 -88 85 -88 164 0 61 4 73
33 116 47 67 123 108 189 100 26 -3 62 -13 80 -22z m-1461 -375 c140 -47 176
-264 60 -362 -97 -81 -255 -52 -318 58 -25 45 -30 114 -12 176 13 43 80 112
124 127 41 14 105 14 146 1z"/>
<path d="M6352 8625 c-30 -33 -42 -56 -43 -78 -1 -18 -2 -464 -3 -992 0 -604
-5 -966 -11 -975 -5 -8 -8 -23 -7 -32 2 -10 -1 -18 -5 -18 -5 0 -10 -12 -11
-27 -4 -53 -26 -113 -42 -113 -13 0 -13 -1 0 -10 10 -6 11 -10 3 -10 -7 0 -13
-5 -13 -11 0 -5 5 -7 11 -4 6 4 5 -2 -3 -14 -7 -12 -16 -21 -19 -21 -4 0 -10
-7 -13 -16 -3 -8 -2 -13 2 -10 5 3 9 -1 9 -9 0 -8 -4 -12 -9 -9 -4 3 -7 -16
-6 -43 1 -43 2 -44 5 -10 4 38 23 53 23 18 0 -13 8 -21 23 -23 17 -2 22 -10
24 -33 1 -16 -1 -22 -3 -12 -3 9 -10 15 -15 12 -11 -7 -12 -65 -1 -65 14 0 32
23 32 41 0 10 5 21 12 25 7 5 8 3 3 -6 -6 -10 -4 -11 6 -4 19 12 69 12 62 0
-4 -5 1 -7 11 -3 10 4 23 4 28 1 11 -7 81 -17 108 -16 52 3 75 10 72 22 -4 16
17 30 34 23 10 -4 11 -10 4 -24 -8 -15 -7 -17 4 -13 9 3 18 15 22 26 9 28 -5
88 -21 95 -10 3 -12 10 -6 21 6 10 4 24 -6 38 -8 13 -12 28 -9 33 4 5 0 13 -8
18 -8 5 -16 33 -20 73 -3 36 -10 97 -15 135 -6 41 -10 463 -10 1021 -1 854 -3
952 -17 958 -8 3 -12 10 -9 16 3 5 1 10 -4 10 -6 0 -22 13 -36 28 -16 18 -36
29 -58 30 -28 2 -40 -5 -75 -43z"/>
<path d="M6678 6124 c-3 -50 10 -86 20 -56 2 7 8 12 13 12 13 0 11 -68 -3 -76
-7 -5 -8 -3 -3 6 5 8 4 11 -2 7 -12 -8 -5 -57 8 -57 5 0 9 -9 9 -20 0 -11 -5
-20 -11 -20 -7 0 -8 -7 -4 -17 13 -29 12 -66 -1 -94 -7 -15 -10 -29 -7 -32 3
-4 1 -12 -5 -20 -6 -7 -13 -25 -16 -41 -4 -23 -3 -26 9 -16 8 7 12 17 8 24 -4
6 1 5 10 -3 9 -7 17 -26 17 -42 0 -27 2 -28 20 -17 14 9 20 24 20 51 0 21 4
36 9 33 4 -3 11 27 14 67 8 87 -3 231 -14 202 -6 -16 -8 -12 -9 15 0 19 -9 46
-20 60 -11 14 -20 31 -20 38 0 6 -4 12 -10 12 -5 0 -10 6 -10 14 0 8 -4 17 -9
20 -5 4 -11 -19 -13 -50z"/>
<path d="M6335 6091 c-41 -18 -105 -82 -105 -104 0 -9 -2 -9 -8 0 -4 6 -8 -28
-8 -76 -1 -79 2 -92 25 -127 44 -64 101 -97 175 -102 80 -5 127 10 165 53 16
18 31 32 33 30 2 -2 4 4 5 13 1 9 7 38 13 64 14 58 0 148 -31 186 -11 15 -41
39 -65 55 -54 33 -136 37 -199 8z"/>
<path d="M6155 6071 c-11 -5 -28 -7 -38 -5 -13 2 -15 -2 -8 -14 6 -11 4 -20
-7 -30 -10 -7 -11 -10 -3 -6 11 5 13 3 8 -10 -4 -10 -7 -29 -7 -42 0 -14 -4
-23 -9 -20 -5 3 -8 -35 -7 -87 2 -93 -6 -136 -27 -149 -8 -5 -7 -8 4 -8 10 0
15 -8 13 -22 -1 -13 -3 -27 -3 -31 -1 -5 -5 -5 -11 -2 -6 3 -10 -5 -10 -19 0
-14 -5 -28 -10 -31 -6 -4 -8 -11 -5 -16 4 -5 1 -9 -4 -9 -7 0 -9 -14 -6 -35 2
-21 0 -33 -5 -30 -11 7 -11 5 -15 -47 -2 -34 -65 -162 -83 -170 -7 -3 -38 -51
-103 -157 -43 -69 -59 -103 -59 -121 0 -11 -7 -20 -15 -20 -9 0 -15 -10 -15
-26 0 -22 -3 -24 -22 -19 -17 5 -19 4 -9 -3 12 -9 12 -13 -2 -27 -10 -9 -17
-23 -17 -31 0 -8 -4 -14 -10 -14 -5 0 -10 -8 -10 -19 0 -10 -7 -24 -15 -31 -8
-7 -13 -16 -10 -20 3 -5 -1 -14 -8 -22 -7 -7 -19 -28 -26 -45 -7 -18 -17 -33
-21 -33 -12 0 -6 -80 8 -113 7 -15 15 -39 18 -53 5 -19 9 -22 15 -12 7 10 9
10 9 0 0 -7 4 -11 9 -8 12 8 42 -4 36 -13 -2 -4 2 -8 10 -8 8 0 15 4 15 9 0 4
7 8 16 8 8 0 13 4 10 8 -2 4 5 9 16 9 11 1 29 11 40 23 10 11 24 18 29 14 5
-3 8 -2 7 3 -2 9 40 95 51 103 4 3 15 24 25 48 11 24 24 41 31 39 6 -3 11 6
10 22 0 14 2 28 5 31 3 3 18 31 34 63 16 31 33 57 38 57 5 0 7 4 3 9 -3 5 2
16 10 25 9 8 15 18 15 21 0 3 9 22 19 43 11 20 20 31 21 25 0 -22 20 -14 20 7
0 11 4 20 10 20 5 0 9 4 7 8 -3 11 36 82 45 82 5 0 8 7 8 15 0 9 7 18 15 21 8
4 15 13 15 20 0 25 31 63 46 57 8 -3 14 0 14 7 0 6 5 8 13 4 8 -5 8 -2 -2 9
-11 14 -11 17 0 17 11 0 11 2 -1 10 -17 11 -16 11 23 15 29 2 47 19 47 43 0 7
4 11 9 7 5 -3 12 -1 16 5 4 6 11 8 16 5 5 -3 23 9 41 27 18 18 34 32 35 31 11
-10 21 0 16 14 -4 11 -3 14 5 9 8 -4 12 0 13 11 0 12 2 13 6 5 4 -10 9 -8 20
7 8 12 19 18 25 15 7 -5 9 -1 5 9 -3 10 -2 17 4 17 6 0 7 4 4 10 -3 6 1 7 9 4
13 -5 16 2 16 35 0 39 -2 41 -20 31 -18 -10 -76 -13 -194 -11 -22 1 -48 8 -59
18 -12 11 -17 12 -12 4 5 -10 4 -12 -3 -7 -7 4 -12 13 -12 21 0 7 -7 16 -16
19 -8 3 -13 2 -10 -2 3 -5 -1 -9 -9 -9 -8 0 -12 3 -10 7 2 4 -10 21 -26 40
-22 23 -30 42 -29 64 3 48 1 53 -15 32 -9 -13 -15 -15 -15 -7 0 8 7 19 16 26
15 11 15 12 -5 18 -22 5 -25 -4 -23 -60 1 -16 -5 -23 -18 -23 -17 0 -20 7 -20
43 1 42 28 94 37 70 11 -30 19 -9 19 47 -1 47 -4 59 -15 55 -12 -5 -12 -3 -1
11 11 13 11 17 0 24 -7 5 -15 19 -17 31 -3 19 -1 21 9 11 6 -6 17 -12 23 -12
5 0 3 5 -5 11 -12 9 -11 10 8 6 15 -3 22 0 22 9 0 8 -1 14 -2 13 -2 0 -12 -4
-23 -8z"/>
</g>
</svg>
